<svg width="1024" height="1024" viewBox="0 0 1024 1024" xmlns="http://www.w3.org/2000/svg">
  <defs>
    <!-- Deep-space gradient + vignette -->
    <radialGradient id="bg" cx="50%" cy="40%" r="70%">
      <stop offset="0%" stop-color="#121233"/>
      <stop offset="70%" stop-color="#0B0B2A"/>
      <stop offset="100%" stop-color="#08081E"/>
    </radialGradient>

    <!-- Soft inner shadow to keep focus center -->
    <filter id="vignette" x="-20%" y="-20%" width="140%" height="140%">
      <feFlood flood-color="#000" flood-opacity="0.55" result="f"/>
      <feComposite in="f" in2="SourceAlpha" operator="in" result="shadow"/>
      <feGaussianBlur stdDeviation="60" in="shadow"/>
      <feComposite in="SourceGraphic" operator="over"/>
    </filter>

    <!-- Neon ring + rocket glows -->
    <filter id="glow-lg" x="-50%" y="-50%" width="200%" height="200%">
      <feGaussianBlur stdDeviation="12" result="b"/>
      <feMerge>
        <feMergeNode in="b"/>
        <feMergeNode in="SourceGraphic"/>
      </feMerge>
    </filter>
    <filter id="glow-sm" x="-50%" y="-50%" width="200%" height="200%">
      <feGaussianBlur stdDeviation="6" result="b"/>
      <feMerge>
        <feMergeNode in="b"/>
        <feMergeNode in="SourceGraphic"/>
      </feMerge>
    </filter>

    <!-- Star symbol for reuse -->
    <symbol id="star">
      <circle r="1.6" fill="#FFFFFF" opacity="0.9"/>
    </symbol>
  </defs>

  <!-- Rounded icon base -->
  <rect width="1024" height="1024" rx="220" fill="url(#bg)" filter="url(#vignette)"/>

  <!-- Sparse stars (kept large enough to survive downscaling) -->
  <g opacity="0.7">
    <use href="#star" x="160" y="200"/>
    <use href="#star" x="320" y="150" transform="scale(0.85)"/>
    <use href="#star" x="520" y="230" transform="scale(1.1)"/>
    <use href="#star" x="740" y="180"/>
    <use href="#star" x="870" y="290" transform="scale(0.9)"/>
    <use href="#star" x="220" y="420" transform="scale(1.1)"/>
    <use href="#star" x="820" y="470" transform="scale(0.8)"/>
    <use href="#star" x="300" y="650"/>
    <use href="#star" x="520" y="710" transform="scale(0.9)"/>
    <use href="#star" x="780" y="760"/>
  </g>

  <!-- Neon ring hint (reads well as small icon) -->
  <circle cx="512" cy="512" r="230" fill="none" stroke="#00F0FF" stroke-width="10" opacity="0.55" filter="url(#glow-sm)"/>

  <!-- Rocket matching game design -->
  <g transform="translate(512,520)" filter="url(#glow-sm)">
    <!-- Trail -->
    <path d="M -12,70 C -40,120 -100,180 -170,210" fill="none" stroke="#FF7A3C" stroke-width="18" stroke-linecap="round" opacity="0.55" filter="url(#glow-lg)"/>
    <path d="M -8,70 C -32,110 -86,160 -150,188" fill="none" stroke="#FFD25A" stroke-width="8" stroke-linecap="round" opacity="0.9" filter="url(#glow-sm)"/>

    <!-- Rocket body (30x24 like in game) -->
    <ellipse cx="0" cy="0" rx="30" ry="24" fill="#4A90E2" stroke="#357ABD" stroke-width="4"/>
    <ellipse cx="0" cy="0" rx="26" ry="20" fill="#357ABD" opacity="0.8"/>
    
    <!-- Cockpit (16x12 like in game) -->
    <ellipse cx="0" cy="-8" rx="16" ry="12" fill="#87CEEB" stroke="#FFFFFF" stroke-width="2"/>
    <ellipse cx="0" cy="-8" rx="10" ry="6" fill="#FFFFFF" opacity="0.7"/>
    
    <!-- Wings (42x8 like in game) -->
    <rect x="-21" y="-4" width="42" height="8" fill="#2E5C8A" rx="4"/>
    <rect x="-29" y="-4" width="8" height="8" fill="#1E3A5F" rx="2"/>
    <rect x="21" y="-4" width="8" height="8" fill="#1E3A5F" rx="2"/>
    
    <!-- Engine (12x10 like in game) -->
    <ellipse cx="0" cy="17" rx="12" ry="10" fill="#FF6B35"/>
    <ellipse cx="0" cy="17" rx="8" ry="6" fill="#FF6B35" opacity="0.8"/>
    
    <!-- Side panels (4x12 like in game) -->
    <rect x="-34" y="-6" width="4" height="12" fill="#357ABD" rx="2"/>
    <rect x="30" y="-6" width="4" height="12" fill="#357ABD" rx="2"/>
    
    <!-- Nose cone (8x8 like in game) -->
    <ellipse cx="0" cy="-20" rx="8" ry="8" fill="#FFD700"/>
    
    <!-- Engine flame -->
    <path d="M -6,27 L 0,50 L 6,27 Z" fill="#FFD700" opacity="0.9" filter="url(#glow-lg)"/>
    <path d="M -4,27 L 0,45 L 4,27 Z" fill="#FF6B35" opacity="0.8"/>
  </g>
</svg> 