<svg width="1024" height="1024" viewBox="0 0 1024 1024" xmlns="http://www.w3.org/2000/svg">
  <!-- Background gradient -->
  <defs>
    <linearGradient id="iconBg" x1="0%" y1="0%" x2="100%" y2="100%">
      <stop offset="0%" style="stop-color:#0B0B2A;stop-opacity:1" />
      <stop offset="50%" style="stop-color:#1A1A3A;stop-opacity:1" />
      <stop offset="100%" style="stop-color:#0B0B2A;stop-opacity:1" />
    </linearGradient>
    <radialGradient id="spaceshipGlow" cx="50%" cy="50%" r="50%">
      <stop offset="0%" style="stop-color:#4A90E2;stop-opacity:0.6" />
      <stop offset="100%" style="stop-color:#4A90E2;stop-opacity:0" />
    </radialGradient>
  </defs>
  
  <!-- Background -->
  <rect width="1024" height="1024" rx="200" fill="url(#iconBg)"/>
  
  <!-- Stars background -->
  <g id="stars">
    <circle cx="100" cy="150" r="2" fill="#FFFFFF" opacity="0.8"/>
    <circle cx="250" cy="100" r="1.5" fill="#FFFFFF" opacity="0.6"/>
    <circle cx="400" cy="200" r="2" fill="#FFFFFF" opacity="0.9"/>
    <circle cx="550" cy="120" r="1.5" fill="#FFFFFF" opacity="0.7"/>
    <circle cx="700" cy="180" r="2" fill="#FFFFFF" opacity="0.8"/>
    <circle cx="850" cy="140" r="1.5" fill="#FFFFFF" opacity="0.6"/>
    <circle cx="150" cy="300" r="2" fill="#FFFFFF" opacity="0.8"/>
    <circle cx="300" cy="350" r="1.5" fill="#FFFFFF" opacity="0.7"/>
    <circle cx="450" cy="280" r="2" fill="#FFFFFF" opacity="0.9"/>
    <circle cx="600" cy="320" r="1.5" fill="#FFFFFF" opacity="0.6"/>
    <circle cx="750" cy="250" r="2" fill="#FFFFFF" opacity="0.8"/>
    <circle cx="900" cy="300" r="1.5" fill="#FFFFFF" opacity="0.7"/>
    <circle cx="200" cy="500" r="2" fill="#FFFFFF" opacity="0.6"/>
    <circle cx="350" cy="550" r="1.5" fill="#FFFFFF" opacity="0.8"/>
    <circle cx="500" cy="480" r="2" fill="#FFFFFF" opacity="0.7"/>
    <circle cx="650" cy="520" r="1.5" fill="#FFFFFF" opacity="0.9"/>
    <circle cx="800" cy="450" r="2" fill="#FFFFFF" opacity="0.6"/>
    <circle cx="950" cy="500" r="1.5" fill="#FFFFFF" opacity="0.8"/>
    <circle cx="100" cy="700" r="2" fill="#FFFFFF" opacity="0.7"/>
    <circle cx="250" cy="750" r="1.5" fill="#FFFFFF" opacity="0.9"/>
    <circle cx="400" cy="680" r="2" fill="#FFFFFF" opacity="0.6"/>
    <circle cx="550" cy="720" r="1.5" fill="#FFFFFF" opacity="0.8"/>
    <circle cx="700" cy="650" r="2" fill="#FFFFFF" opacity="0.7"/>
    <circle cx="850" cy="700" r="1.5" fill="#FFFFFF" opacity="0.9"/>
    <circle cx="150" cy="900" r="2" fill="#FFFFFF" opacity="0.6"/>
    <circle cx="300" cy="850" r="1.5" fill="#FFFFFF" opacity="0.8"/>
    <circle cx="450" cy="900" r="2" fill="#FFFFFF" opacity="0.7"/>
    <circle cx="600" cy="880" r="1.5" fill="#FFFFFF" opacity="0.9"/>
    <circle cx="750" cy="920" r="2" fill="#FFFFFF" opacity="0.6"/>
    <circle cx="900" cy="850" r="1.5" fill="#FFFFFF" opacity="0.8"/>
  </g>
  
  <!-- Top pipe (like Flappy Bird) -->
  <g transform="translate(800, 200)">
    <!-- Pipe body -->
    <rect x="0" y="0" width="80" height="300" fill="#228B22" stroke="#006400" stroke-width="6"/>
    <!-- Pipe cap -->
    <rect x="-16" y="270" width="112" height="30" fill="#32CD32" stroke="#006400" stroke-width="6"/>
    <!-- Pipe texture rings -->
    <rect x="8" y="20" width="64" height="3" fill="#006400" opacity="0.6" rx="1.5"/>
    <rect x="8" y="60" width="64" height="3" fill="#006400" opacity="0.6" rx="1.5"/>
    <rect x="8" y="100" width="64" height="3" fill="#006400" opacity="0.6" rx="1.5"/>
    <rect x="8" y="140" width="64" height="3" fill="#006400" opacity="0.6" rx="1.5"/>
    <rect x="8" y="180" width="64" height="3" fill="#006400" opacity="0.6" rx="1.5"/>
    <rect x="8" y="220" width="64" height="3" fill="#006400" opacity="0.6" rx="1.5"/>
  </g>
  
  <!-- Bottom pipe (like Flappy Bird) -->
  <g transform="translate(800, 700)">
    <!-- Pipe body -->
    <rect x="0" y="0" width="80" height="200" fill="#228B22" stroke="#006400" stroke-width="6"/>
    <!-- Pipe cap -->
    <rect x="-16" y="-27" width="112" height="30" fill="#32CD32" stroke="#006400" stroke-width="6"/>
    <!-- Pipe texture rings -->
    <rect x="8" y="20" width="64" height="3" fill="#006400" opacity="0.6" rx="1.5"/>
    <rect x="8" y="60" width="64" height="3" fill="#006400" opacity="0.6" rx="1.5"/>
    <rect x="8" y="100" width="64" height="3" fill="#006400" opacity="0.6" rx="1.5"/>
    <rect x="8" y="140" width="64" height="3" fill="#006400" opacity="0.6" rx="1.5"/>
    <rect x="8" y="180" width="64" height="3" fill="#006400" opacity="0.6" rx="1.5"/>
  </g>
  
  <!-- Central Spaceship/UFO (exact match to game) -->
  <g transform="translate(512, 512)">
    <!-- Spaceship glow -->
    <ellipse cx="0" cy="0" rx="60" ry="40" fill="url(#spaceshipGlow)" opacity="0.4"/>
    
    <!-- Spaceship body (30x24 like in game) -->
    <ellipse cx="0" cy="0" rx="30" ry="24" fill="#4A90E2" stroke="#357ABD" stroke-width="4"/>
    <ellipse cx="0" cy="0" rx="26" ry="20" fill="#357ABD" opacity="0.8"/>
    
    <!-- Spaceship cockpit (16x12 like in game) -->
    <ellipse cx="0" cy="-8" rx="16" ry="12" fill="#87CEEB" stroke="#FFFFFF" stroke-width="2"/>
    <ellipse cx="0" cy="-8" rx="10" ry="6" fill="#FFFFFF" opacity="0.7"/>
    
    <!-- Spaceship wings (42x8 like in game) -->
    <rect x="-21" y="-4" width="42" height="8" fill="#2E5C8A" rx="4"/>
    <rect x="-29" y="-4" width="8" height="8" fill="#1E3A5F" rx="2"/>
    <rect x="21" y="-4" width="8" height="8" fill="#1E3A5F" rx="2"/>
    
    <!-- Spaceship engine (12x10 like in game) -->
    <ellipse cx="0" cy="17" rx="12" ry="10" fill="#FF6B35"/>
    <ellipse cx="0" cy="17" rx="8" ry="6" fill="#FF6B35" opacity="0.8"/>
    
    <!-- Side panels (4x12 like in game) -->
    <rect x="-34" y="-6" width="4" height="12" fill="#357ABD" rx="2"/>
    <rect x="30" y="-6" width="4" height="12" fill="#357ABD" rx="2"/>
    
    <!-- Nose cone (8x8 like in game) -->
    <ellipse cx="0" cy="-20" rx="8" ry="8" fill="#FFD700"/>
  </g>
  
  <!-- Score display (like in game) -->
  <rect x="50" y="100" width="120" height="60" rx="30" fill="rgba(255, 215, 0, 0.1)" opacity="0.8"/>
  <rect x="52" y="102" width="116" height="56" rx="28" fill="rgba(255, 215, 0, 0.2)" opacity="0.6"/>
  <text x="110" y="130" text-anchor="middle" font-family="Arial, sans-serif" font-size="16" font-weight="bold" fill="#FFD700" opacity="0.9">SCORE</text>
  <text x="110" y="150" text-anchor="middle" font-family="Arial, sans-serif" font-size="24" font-weight="bold" fill="#FFD700" opacity="0.9">0</text>
  
  <!-- Game title -->
  <text x="512" y="900" text-anchor="middle" font-family="Arial, sans-serif" font-size="36" font-weight="bold" fill="#FFFFFF" opacity="0.9">
    COSMIC DASH
  </text>
</svg> 