<svg width="1024" height="1024" viewBox="0 0 1024 1024" xmlns="http://www.w3.org/2000/svg">
  <defs>
    <!-- Deep space gradient -->
    <radialGradient id="bg" cx="50%" cy="40%" r="70%">
      <stop offset="0%" stop-color="#0A0A1A"/>
      <stop offset="70%" stop-color="#0B0B2A"/>
      <stop offset="100%" stop-color="#08081E"/>
    </radialGradient>
    
    <!-- Moon gradient -->
    <radialGradient id="moon" cx="30%" cy="30%" r="70%">
      <stop offset="0%" stop-color="#F5F5F5"/>
      <stop offset="100%" stop-color="#D3D3D3"/>
    </radialGradient>
    
    <!-- Planet gradient -->
    <radialGradient id="planet" cx="40%" cy="40%" r="60%">
      <stop offset="0%" stop-color="#4A90E2"/>
      <stop offset="100%" stop-color="#357ABD"/>
    </radialGradient>

    <!-- Star symbol for reuse -->
    <symbol id="star">
      <circle r="1.2" fill="#FFFFFF" opacity="0.8"/>
    </symbol>
  </defs>

  <!-- Rounded icon base -->
  <rect width="1024" height="1024" rx="220" fill="url(#bg)"/>

  <!-- Universe stars -->
  <g opacity="0.7">
    <use href="#star" x="160" y="200"/>
    <use href="#star" x="320" y="150" transform="scale(0.85)"/>
    <use href="#star" x="520" y="230" transform="scale(1.1)"/>
    <use href="#star" x="740" y="180"/>
    <use href="#star" x="870" y="290" transform="scale(0.9)"/>
    <use href="#star" x="220" y="420" transform="scale(1.1)"/>
    <use href="#star" x="820" y="470" transform="scale(0.8)"/>
    <use href="#star" x="300" y="650"/>
    <use href="#star" x="520" y="710" transform="scale(0.9)"/>
    <use href="#star" x="780" y="760"/>
    <!-- Additional stars for universe feel -->
    <use href="#star" x="100" y="300" transform="scale(0.7)"/>
    <use href="#star" x="400" y="100" transform="scale(0.9)"/>
    <use href="#star" x="600" y="350" transform="scale(0.8)"/>
    <use href="#star" x="800" y="250" transform="scale(0.7)"/>
    <use href="#star" x="150" y="500" transform="scale(0.9)"/>
    <use href="#star" x="450" y="600" transform="scale(0.8)"/>
    <use href="#star" x="700" y="550" transform="scale(0.7)"/>
    <use href="#star" x="900" y="400" transform="scale(0.9)"/>
  </g>

  <!-- Moon (target for landing) -->
  <g transform="translate(750, 300)">
    <circle cx="0" cy="0" r="80" fill="url(#moon)"/>
    <circle cx="-20" cy="-20" r="15" fill="#E0E0E0" opacity="0.6"/>
    <circle cx="30" cy="10" r="8" fill="#E0E0E0" opacity="0.4"/>
    <circle cx="-10" cy="25" r="12" fill="#E0E0E0" opacity="0.5"/>
  </g>

  <!-- Small planet in background -->
  <g transform="translate(200, 700)">
    <circle cx="0" cy="0" r="40" fill="url(#planet)"/>
    <circle cx="-10" cy="-10" r="8" fill="#357ABD" opacity="0.6"/>
    <circle cx="15" cy="5" r="5" fill="#357ABD" opacity="0.4"/>
  </g>

  <!-- Rocket heading toward moon -->
  <g transform="translate(400, 500)">
    <!-- Rocket body (30x24 like in game) -->
    <ellipse cx="0" cy="0" rx="30" ry="24" fill="#4A90E2" stroke="#357ABD" stroke-width="3"/>
    <ellipse cx="0" cy="0" rx="26" ry="20" fill="#357ABD" opacity="0.9"/>
    
    <!-- Cockpit (16x12 like in game) -->
    <ellipse cx="0" cy="-8" rx="16" ry="12" fill="#87CEEB" stroke="#FFFFFF" stroke-width="2"/>
    <ellipse cx="0" cy="-8" rx="10" ry="6" fill="#FFFFFF" opacity="0.8"/>
    
    <!-- Wings (42x8 like in game) -->
    <rect x="-21" y="-4" width="42" height="8" fill="#2E5C8A" rx="4"/>
    <rect x="-29" y="-4" width="8" height="8" fill="#1E3A5F" rx="2"/>
    <rect x="21" y="-4" width="8" height="8" fill="#1E3A5F" rx="2"/>
    
    <!-- Engine (12x10 like in game) -->
    <ellipse cx="0" cy="17" rx="12" ry="10" fill="#FF6B35"/>
    <ellipse cx="0" cy="17" rx="8" ry="6" fill="#FF6B35" opacity="0.9"/>
    
    <!-- Side panels (4x12 like in game) -->
    <rect x="-34" y="-6" width="4" height="12" fill="#357ABD" rx="2"/>
    <rect x="30" y="-6" width="4" height="12" fill="#357ABD" rx="2"/>
    
    <!-- Nose cone (8x8 like in game) -->
    <ellipse cx="0" cy="-20" rx="8" ry="8" fill="#FFD700"/>
    
    <!-- Rocket trajectory line -->
    <path d="M 30,0 Q 200,-50 350,-100" fill="none" stroke="#FFFFFF" stroke-width="2" stroke-dasharray="5,5" opacity="0.3"/>
  </g>
</svg> 