<svg width="1024" height="1024" viewBox="0 0 1024 1024" xmlns="http://www.w3.org/2000/svg">
  <!-- Background gradient -->
  <defs>
    <linearGradient id="iconBg" x1="0%" y1="0%" x2="100%" y2="100%">
      <stop offset="0%" style="stop-color:#0B0B2A;stop-opacity:1" />
      <stop offset="50%" style="stop-color:#1A1A3A;stop-opacity:1" />
      <stop offset="100%" style="stop-color:#0B0B2A;stop-opacity:1" />
    </linearGradient>
    <radialGradient id="spaceshipGlow" cx="50%" cy="50%" r="50%">
      <stop offset="0%" style="stop-color:#4A90E2;stop-opacity:0.6" />
      <stop offset="100%" style="stop-color:#4A90E2;stop-opacity:0" />
    </radialGradient>
  </defs>
  
  <!-- Background -->
  <rect width="1024" height="1024" rx="200" fill="url(#iconBg)"/>
  
  <!-- Stars background -->
  <g id="stars">
    <circle cx="100" cy="150" r="2" fill="#FFFFFF" opacity="0.8"/>
    <circle cx="250" cy="100" r="1.5" fill="#FFFFFF" opacity="0.6"/>
    <circle cx="400" cy="200" r="2" fill="#FFFFFF" opacity="0.9"/>
    <circle cx="550" cy="120" r="1.5" fill="#FFFFFF" opacity="0.7"/>
    <circle cx="700" cy="180" r="2" fill="#FFFFFF" opacity="0.8"/>
    <circle cx="850" cy="140" r="1.5" fill="#FFFFFF" opacity="0.6"/>
    <circle cx="150" cy="300" r="2" fill="#FFFFFF" opacity="0.8"/>
    <circle cx="300" cy="350" r="1.5" fill="#FFFFFF" opacity="0.7"/>
    <circle cx="450" cy="280" r="2" fill="#FFFFFF" opacity="0.9"/>
    <circle cx="600" cy="320" r="1.5" fill="#FFFFFF" opacity="0.6"/>
    <circle cx="750" cy="250" r="2" fill="#FFFFFF" opacity="0.8"/>
    <circle cx="900" cy="300" r="1.5" fill="#FFFFFF" opacity="0.7"/>
    <circle cx="200" cy="500" r="2" fill="#FFFFFF" opacity="0.6"/>
    <circle cx="350" cy="550" r="1.5" fill="#FFFFFF" opacity="0.8"/>
    <circle cx="500" cy="480" r="2" fill="#FFFFFF" opacity="0.7"/>
    <circle cx="650" cy="520" r="1.5" fill="#FFFFFF" opacity="0.9"/>
    <circle cx="800" cy="450" r="2" fill="#FFFFFF" opacity="0.6"/>
    <circle cx="950" cy="500" r="1.5" fill="#FFFFFF" opacity="0.8"/>
    <circle cx="100" cy="700" r="2" fill="#FFFFFF" opacity="0.7"/>
    <circle cx="250" cy="750" r="1.5" fill="#FFFFFF" opacity="0.9"/>
    <circle cx="400" cy="680" r="2" fill="#FFFFFF" opacity="0.6"/>
    <circle cx="550" cy="720" r="1.5" fill="#FFFFFF" opacity="0.8"/>
    <circle cx="700" cy="650" r="2" fill="#FFFFFF" opacity="0.7"/>
    <circle cx="850" cy="700" r="1.5" fill="#FFFFFF" opacity="0.9"/>
    <circle cx="150" cy="900" r="2" fill="#FFFFFF" opacity="0.6"/>
    <circle cx="300" cy="850" r="1.5" fill="#FFFFFF" opacity="0.8"/>
    <circle cx="450" cy="900" r="2" fill="#FFFFFF" opacity="0.7"/>
    <circle cx="600" cy="880" r="1.5" fill="#FFFFFF" opacity="0.9"/>
    <circle cx="750" cy="920" r="2" fill="#FFFFFF" opacity="0.6"/>
    <circle cx="900" cy="850" r="1.5" fill="#FFFFFF" opacity="0.8"/>
  </g>
  
  <!-- Settings button (gear icon) -->
  <g transform="translate(900, 120)">
    <circle cx="0" cy="0" r="44" fill="rgba(255, 255, 255, 0.1)" opacity="0.8"/>
    <text x="0" y="0" text-anchor="middle" font-family="Arial, sans-serif" font-size="40" fill="#FFFFFF" opacity="0.9">⚙️</text>
  </g>
  
  <!-- Game title section -->
  <text x="512" y="360" text-anchor="middle" font-family="Arial, sans-serif" font-size="84" font-weight="bold" fill="#FFFFFF" opacity="0.9">
    COSMIC DASH
  </text>
  <text x="512" y="400" text-anchor="middle" font-family="Arial, sans-serif" font-size="28" fill="#CCCCCC" opacity="0.8">
    Space Adventure
  </text>
  
  <!-- Central Spaceship/UFO (exact match to main menu) -->
  <g transform="translate(512, 512)">
    <!-- Spaceship glow -->
    <ellipse cx="0" cy="0" rx="60" ry="40" fill="url(#spaceshipGlow)" opacity="0.4"/>
    
    <!-- Spaceship body (30x24 like in game) -->
    <ellipse cx="0" cy="0" rx="30" ry="24" fill="#4A90E2" stroke="#357ABD" stroke-width="4"/>
    <ellipse cx="0" cy="0" rx="26" ry="20" fill="#357ABD" opacity="0.8"/>
    
    <!-- Spaceship cockpit (16x12 like in game) -->
    <ellipse cx="0" cy="-8" rx="16" ry="12" fill="#87CEEB" stroke="#FFFFFF" stroke-width="2"/>
    <ellipse cx="0" cy="-8" rx="10" ry="6" fill="#FFFFFF" opacity="0.7"/>
    
    <!-- Spaceship wings (42x8 like in game) -->
    <rect x="-21" y="-4" width="42" height="8" fill="#2E5C8A" rx="4"/>
    <rect x="-29" y="-4" width="8" height="8" fill="#1E3A5F" rx="2"/>
    <rect x="21" y="-4" width="8" height="8" fill="#1E3A5F" rx="2"/>
    
    <!-- Spaceship engine (12x10 like in game) -->
    <ellipse cx="0" cy="17" rx="12" ry="10" fill="#FF6B35"/>
    <ellipse cx="0" cy="17" rx="8" ry="6" fill="#FF6B35" opacity="0.8"/>
    
    <!-- Side panels (4x12 like in game) -->
    <rect x="-34" y="-6" width="4" height="12" fill="#357ABD" rx="2"/>
    <rect x="30" y="-6" width="4" height="12" fill="#357ABD" rx="2"/>
    
    <!-- Nose cone (8x8 like in game) -->
    <ellipse cx="0" cy="-20" rx="8" ry="8" fill="#FFD700"/>
  </g>
  
  <!-- Tap to play text -->
  <text x="512" y="650" text-anchor="middle" font-family="Arial, sans-serif" font-size="36" font-weight="bold" fill="#FFFFFF" opacity="0.7">
    TAP TO PLAY
  </text>
  
  <!-- Best score section -->
  <g transform="translate(512, 800)">
    <!-- Score container -->
    <rect x="-120" y="-60" width="240" height="120" rx="24" fill="rgba(255, 215, 0, 0.1)" opacity="0.8"/>
    <rect x="-116" y="-56" width="232" height="112" rx="20" fill="rgba(255, 215, 0, 0.2)" opacity="0.6"/>
    <rect x="-116" y="-56" width="232" height="112" rx="20" fill="transparent" stroke="rgba(255, 215, 0, 0.3)" stroke-width="2"/>
    
    <!-- Score text -->
    <text x="0" y="-20" text-anchor="middle" font-family="Arial, sans-serif" font-size="24" font-weight="600" fill="#FFD700" opacity="0.9" letter-spacing="2">BEST SCORE</text>
    <text x="0" y="20" text-anchor="middle" font-family="Arial, sans-serif" font-size="48" font-weight="bold" fill="#FFD700" opacity="0.9">1009</text>
  </g>
</svg> 