<svg width="1024" height="1024" viewBox="0 0 1024 1024" xmlns="http://www.w3.org/2000/svg">
  <!-- Background gradient -->
  <defs>
    <linearGradient id="iconBg" x1="0%" y1="0%" x2="100%" y2="100%">
      <stop offset="0%" style="stop-color:#0B0B2A;stop-opacity:1" />
      <stop offset="50%" style="stop-color:#1A1A3A;stop-opacity:1" />
      <stop offset="100%" style="stop-color:#0B0B2A;stop-opacity:1" />
    </linearGradient>
    <radialGradient id="rocketGlow" cx="50%" cy="50%" r="50%">
      <stop offset="0%" style="stop-color:#4A90E2;stop-opacity:0.8" />
      <stop offset="100%" style="stop-color:#4A90E2;stop-opacity:0" />
    </radialGradient>
    <radialGradient id="trailGlow" cx="50%" cy="50%" r="50%">
      <stop offset="0%" style="stop-color:#FF6B35;stop-opacity:1" />
      <stop offset="100%" style="stop-color:#FF6B35;stop-opacity:0" />
    </radialGradient>
    <radialGradient id="neonGlow" cx="50%" cy="50%" r="50%">
      <stop offset="0%" style="stop-color:#00FFFF;stop-opacity:0.6" />
      <stop offset="100%" style="stop-color:#00FFFF;stop-opacity:0" />
    </radialGradient>
  </defs>
  
  <!-- Background -->
  <rect width="1024" height="1024" rx="200" fill="url(#iconBg)"/>
  
  <!-- Stars background -->
  <g id="stars">
    <circle cx="100" cy="150" r="2" fill="#FFFFFF" opacity="0.8"/>
    <circle cx="250" cy="100" r="1.5" fill="#FFFFFF" opacity="0.6"/>
    <circle cx="400" cy="200" r="2" fill="#FFFFFF" opacity="0.9"/>
    <circle cx="550" cy="120" r="1.5" fill="#FFFFFF" opacity="0.7"/>
    <circle cx="700" cy="180" r="2" fill="#FFFFFF" opacity="0.8"/>
    <circle cx="850" cy="140" r="1.5" fill="#FFFFFF" opacity="0.6"/>
    <circle cx="150" cy="300" r="2" fill="#FFFFFF" opacity="0.8"/>
    <circle cx="300" cy="350" r="1.5" fill="#FFFFFF" opacity="0.7"/>
    <circle cx="450" cy="280" r="2" fill="#FFFFFF" opacity="0.9"/>
    <circle cx="600" cy="320" r="1.5" fill="#FFFFFF" opacity="0.6"/>
    <circle cx="750" cy="250" r="2" fill="#FFFFFF" opacity="0.8"/>
    <circle cx="900" cy="300" r="1.5" fill="#FFFFFF" opacity="0.7"/>
    <circle cx="200" cy="500" r="2" fill="#FFFFFF" opacity="0.6"/>
    <circle cx="350" cy="550" r="1.5" fill="#FFFFFF" opacity="0.8"/>
    <circle cx="500" cy="480" r="2" fill="#FFFFFF" opacity="0.7"/>
    <circle cx="650" cy="520" r="1.5" fill="#FFFFFF" opacity="0.9"/>
    <circle cx="800" cy="450" r="2" fill="#FFFFFF" opacity="0.6"/>
    <circle cx="950" cy="500" r="1.5" fill="#FFFFFF" opacity="0.8"/>
    <circle cx="100" cy="700" r="2" fill="#FFFFFF" opacity="0.7"/>
    <circle cx="250" cy="750" r="1.5" fill="#FFFFFF" opacity="0.9"/>
    <circle cx="400" cy="680" r="2" fill="#FFFFFF" opacity="0.6"/>
    <circle cx="550" cy="720" r="1.5" fill="#FFFFFF" opacity="0.8"/>
    <circle cx="700" cy="650" r="2" fill="#FFFFFF" opacity="0.7"/>
    <circle cx="850" cy="700" r="1.5" fill="#FFFFFF" opacity="0.9"/>
    <circle cx="150" cy="900" r="2" fill="#FFFFFF" opacity="0.6"/>
    <circle cx="300" cy="850" r="1.5" fill="#FFFFFF" opacity="0.8"/>
    <circle cx="450" cy="900" r="2" fill="#FFFFFF" opacity="0.7"/>
    <circle cx="600" cy="880" r="1.5" fill="#FFFFFF" opacity="0.9"/>
    <circle cx="750" cy="920" r="2" fill="#FFFFFF" opacity="0.6"/>
    <circle cx="900" cy="850" r="1.5" fill="#FFFFFF" opacity="0.8"/>
  </g>
  
  <!-- Rocket trail glow -->
  <g transform="translate(512, 512)">
    <!-- Trail glow effect -->
    <ellipse cx="0" cy="0" rx="200" ry="60" fill="url(#trailGlow)" opacity="0.4" transform="rotate(-45)"/>
    <ellipse cx="0" cy="0" rx="150" ry="40" fill="url(#trailGlow)" opacity="0.6" transform="rotate(-45)"/>
    <ellipse cx="0" cy="0" rx="100" ry="25" fill="url(#trailGlow)" opacity="0.8" transform="rotate(-45)"/>
  </g>
  
  <!-- Minimal Rocket Silhouette -->
  <g transform="translate(512, 512)">
    <!-- Rocket glow -->
    <ellipse cx="0" cy="0" rx="80" ry="40" fill="url(#rocketGlow)" opacity="0.6"/>
    
    <!-- Rocket body -->
    <path d="M-20,-60 L20,-60 L15,60 L-15,60 Z" fill="#4A90E2" stroke="#357ABD" stroke-width="3"/>
    <path d="M-15,-50 L15,-50 L12,50 L-12,50 Z" fill="#357ABD" opacity="0.8"/>
    
    <!-- Rocket cockpit -->
    <ellipse cx="0" cy="-30" rx="12" ry="8" fill="#87CEEB" stroke="#FFFFFF" stroke-width="2"/>
    <ellipse cx="0" cy="-30" rx="8" ry="5" fill="#FFFFFF" opacity="0.7"/>
    
    <!-- Rocket fins -->
    <path d="M-15,60 L-25,80 L-10,60 Z" fill="#2E5C8A" stroke="#1E3A5F" stroke-width="1"/>
    <path d="M15,60 L25,80 L10,60 Z" fill="#2E5C8A" stroke="#1E3A5F" stroke-width="1"/>
    
    <!-- Rocket engine -->
    <path d="M-8,60 L0,85 L8,60 Z" fill="#FF6B35" stroke="#FF8C00" stroke-width="1"/>
    <path d="M-6,60 L0,80 L6,60 Z" fill="#FF8C00" opacity="0.8"/>
    
    <!-- Engine flame -->
    <path d="M-6,60 L0,100 L6,60 Z" fill="url(#trailGlow)" opacity="0.9"/>
    <path d="M-4,60 L0,90 L4,60 Z" fill="#FFD700" opacity="0.8"/>
    
    <!-- Neon outline effect -->
    <path d="M-20,-60 L20,-60 L15,60 L-15,60 Z" fill="none" stroke="#00FFFF" stroke-width="2" opacity="0.6"/>
  </g>
  
  <!-- Game title with neon glow -->
  <text x="512" y="900" text-anchor="middle" font-family="Arial, sans-serif" font-size="36" font-weight="bold" fill="#FFFFFF" opacity="0.9">
    COSMIC DASH
  </text>
  <text x="512" y="900" text-anchor="middle" font-family="Arial, sans-serif" font-size="36" font-weight="bold" fill="#00FFFF" opacity="0.4">
    COSMIC DASH
  </text>
</svg> 