<svg width="1024" height="1024" viewBox="0 0 1024 1024" xmlns="http://www.w3.org/2000/svg">
  <defs>
    <!-- Deep-space gradient -->
    <radialGradient id="bg" cx="50%" cy="40%" r="70%">
      <stop offset="0%" stop-color="#121233"/>
      <stop offset="70%" stop-color="#0B0B2A"/>
      <stop offset="100%" stop-color="#08081E"/>
    </radialGradient>

    <!-- Star symbol for reuse -->
    <symbol id="star">
      <circle r="1.6" fill="#FFFFFF" opacity="0.9"/>
    </symbol>
  </defs>

  <!-- Rounded icon base -->
  <rect width="1024" height="1024" rx="220" fill="url(#bg)"/>

  <!-- Sparse stars -->
  <g opacity="0.7">
    <use href="#star" x="160" y="200"/>
    <use href="#star" x="320" y="150" transform="scale(0.85)"/>
    <use href="#star" x="520" y="230" transform="scale(1.1)"/>
    <use href="#star" x="740" y="180"/>
    <use href="#star" x="870" y="290" transform="scale(0.9)"/>
    <use href="#star" x="220" y="420" transform="scale(1.1)"/>
    <use href="#star" x="820" y="470" transform="scale(0.8)"/>
    <use href="#star" x="300" y="650"/>
    <use href="#star" x="520" y="710" transform="scale(0.9)"/>
    <use href="#star" x="780" y="760"/>
  </g>

  <!-- Subtle ring hint -->
  <circle cx="512" cy="512" r="230" fill="none" stroke="#00F0FF" stroke-width="8" opacity="0.3"/>

  <!-- Rocket matching game design -->
  <g transform="translate(512,520)">
    <!-- Trail with better fire effect -->
    <path d="M -12,70 C -40,120 -100,180 -170,210" fill="none" stroke="#FF7A3C" stroke-width="16" stroke-linecap="round" opacity="0.6"/>
    <path d="M -8,70 C -32,110 -86,160 -150,188" fill="none" stroke="#FFD25A" stroke-width="6" stroke-linecap="round" opacity="0.8"/>
    <path d="M -4,70 C -24,100 -72,140 -130,166" fill="none" stroke="#FFFFFF" stroke-width="3" stroke-linecap="round" opacity="0.9"/>
    
    <!-- Rocket body (30x24 like in game) -->
    <ellipse cx="0" cy="0" rx="30" ry="24" fill="#4A90E2" stroke="#357ABD" stroke-width="4"/>
    <ellipse cx="0" cy="0" rx="26" ry="20" fill="#357ABD" opacity="0.8"/>
    
    <!-- Cockpit (16x12 like in game) -->
    <ellipse cx="0" cy="-8" rx="16" ry="12" fill="#87CEEB" stroke="#FFFFFF" stroke-width="2"/>
    <ellipse cx="0" cy="-8" rx="10" ry="6" fill="#FFFFFF" opacity="0.7"/>
    
    <!-- Wings (42x8 like in game) -->
    <rect x="-21" y="-4" width="42" height="8" fill="#2E5C8A" rx="4"/>
    <rect x="-29" y="-4" width="8" height="8" fill="#1E3A5F" rx="2"/>
    <rect x="21" y="-4" width="8" height="8" fill="#1E3A5F" rx="2"/>
    
    <!-- Engine (12x10 like in game) -->
    <ellipse cx="0" cy="17" rx="12" ry="10" fill="#FF6B35"/>
    <ellipse cx="0" cy="17" rx="8" ry="6" fill="#FF6B35" opacity="0.8"/>
    
    <!-- Side panels (4x12 like in game) -->
    <rect x="-34" y="-6" width="4" height="12" fill="#357ABD" rx="2"/>
    <rect x="30" y="-6" width="4" height="12" fill="#357ABD" rx="2"/>
    
    <!-- Nose cone (8x8 like in game) -->
    <ellipse cx="0" cy="-20" rx="8" ry="8" fill="#FFD700"/>
    
    <!-- Engine flame with better effect -->
    <path d="M -8,27 L 0,60 L 8,27 Z" fill="#FFD700" opacity="0.9"/>
    <path d="M -6,27 L 0,50 L 6,27 Z" fill="#FF6B35" opacity="0.8"/>
    <path d="M -4,27 L 0,40 L 4,27 Z" fill="#FFFFFF" opacity="0.7"/>
  </g>
</svg> 