<svg width="1024" height="1024" viewBox="0 0 1024 1024" xmlns="http://www.w3.org/2000/svg">
  <defs>
    <!-- Deep space gradient -->
    <radialGradient id="bg" cx="50%" cy="40%" r="70%">
      <stop offset="0%" stop-color="#0A0A1A"/>
      <stop offset="70%" stop-color="#0B0B2A"/>
      <stop offset="100%" stop-color="#08081E"/>
    </radialGradient>
    
    <!-- Planet gradient -->
    <radialGradient id="planet" cx="40%" cy="40%" r="60%">
      <stop offset="0%" stop-color="#87CEEB"/>
      <stop offset="100%" stop-color="#4A90E2"/>
    </radialGradient>
    
    <!-- Moon gradient -->
    <radialGradient id="moon" cx="30%" cy="30%" r="70%">
      <stop offset="0%" stop-color="#F5F5F5"/>
      <stop offset="100%" stop-color="#D3D3D3"/>
    </radialGradient>
    
    <!-- UFO metallic gradient -->
    <linearGradient id="ufo" x1="0%" y1="0%" x2="0%" y2="100%">
      <stop offset="0%" stop-color="#2C2C2C"/>
      <stop offset="50%" stop-color="#404040"/>
      <stop offset="100%" stop-color="#1A1A1A"/>
    </linearGradient>
    
    <!-- UFO dome gradient -->
    <radialGradient id="ufoDome" cx="50%" cy="30%" r="70%">
      <stop offset="0%" stop-color="#87CEEB"/>
      <stop offset="100%" stop-color="#4A90E2"/>
    </radialGradient>

    <!-- Star symbol for reuse -->
    <symbol id="star">
      <circle r="1.2" fill="#FFFFFF" opacity="0.8"/>
    </symbol>
  </defs>

  <!-- Rounded icon base -->
  <rect width="1024" height="1024" rx="220" fill="url(#bg)"/>

  <!-- Universe stars -->
  <g opacity="0.7">
    <use href="#star" x="160" y="200"/>
    <use href="#star" x="320" y="150" transform="scale(0.85)"/>
    <use href="#star" x="520" y="230" transform="scale(1.1)"/>
    <use href="#star" x="740" y="180"/>
    <use href="#star" x="870" y="290" transform="scale(0.9)"/>
    <use href="#star" x="220" y="420" transform="scale(1.1)"/>
    <use href="#star" x="820" y="470" transform="scale(0.8)"/>
    <use href="#star" x="300" y="650"/>
    <use href="#star" x="520" y="710" transform="scale(0.9)"/>
    <use href="#star" x="780" y="760"/>
    <use href="#star" x="100" y="300" transform="scale(0.7)"/>
    <use href="#star" x="400" y="100" transform="scale(0.9)"/>
    <use href="#star" x="600" y="350" transform="scale(0.8)"/>
    <use href="#star" x="800" y="250" transform="scale(0.7)"/>
    <use href="#star" x="150" y="500" transform="scale(0.9)"/>
    <use href="#star" x="450" y="600" transform="scale(0.8)"/>
    <use href="#star" x="700" y="550" transform="scale(0.7)"/>
    <use href="#star" x="900" y="400" transform="scale(0.9)"/>
  </g>

  <!-- Planet in bottom left -->
  <g transform="translate(200, 800)">
    <circle cx="0" cy="0" r="60" fill="url(#planet)"/>
    <circle cx="-15" cy="-15" r="12" fill="#4A90E2" opacity="0.6"/>
    <circle cx="20" cy="10" r="8" fill="#4A90E2" opacity="0.4"/>
  </g>

  <!-- Moon in upper right -->
  <g transform="translate(800, 200)">
    <circle cx="0" cy="0" r="40" fill="url(#moon)"/>
    <circle cx="-10" cy="-10" r="8" fill="#E0E0E0" opacity="0.6"/>
    <circle cx="15" cy="5" r="5" fill="#E0E0E0" opacity="0.4"/>
  </g>

  <!-- Rock formations (left and right pillars) -->
  <g>
    <!-- Left rock formation -->
    <rect x="50" y="100" width="80" height="824" fill="#2C2C2C" rx="20"/>
    <rect x="60" y="120" width="60" height="784" fill="#1A1A1A" rx="15"/>
    <rect x="70" y="140" width="40" height="744" fill="#404040" rx="10"/>
    
    <!-- Right rock formation -->
    <rect x="894" y="100" width="80" height="824" fill="#2C2C2C" rx="20"/>
    <rect x="904" y="120" width="60" height="784" fill="#1A1A1A" rx="15"/>
    <rect x="914" y="140" width="40" height="744" fill="#404040" rx="10"/>
  </g>

  <!-- UFO Flying Saucer -->
  <g transform="translate(512, 450)">
    <!-- UFO body (main disc) -->
    <ellipse cx="0" cy="0" rx="80" ry="25" fill="url(#ufo)"/>
    <ellipse cx="0" cy="0" rx="70" ry="20" fill="#1A1A1A" opacity="0.8"/>
    
    <!-- UFO dome -->
    <ellipse cx="0" cy="-15" rx="50" ry="20" fill="url(#ufoDome)"/>
    <ellipse cx="0" cy="-15" rx="40" ry="15" fill="#4A90E2" opacity="0.6"/>
    
    <!-- UFO details -->
    <ellipse cx="-30" cy="0" rx="8" ry="4" fill="#FFD700"/>
    <ellipse cx="30" cy="0" rx="8" ry="4" fill="#FFD700"/>
    <ellipse cx="0" cy="10" rx="6" ry="3" fill="#FFD700"/>
    
    <!-- Glowing orange propulsion light -->
    <ellipse cx="0" cy="30" rx="60" ry="20" fill="#FF6B35" opacity="0.8"/>
    <ellipse cx="0" cy="35" rx="40" ry="15" fill="#FFD700" opacity="0.9"/>
    <ellipse cx="0" cy="40" rx="20" ry="10" fill="#FFFFFF" opacity="0.7"/>
    
    <!-- UFO ambient glow -->
    <ellipse cx="0" cy="0" rx="100" ry="40" fill="#87CEEB" opacity="0.1"/>
  </g>
</svg> 