<svg width="400" height="800" viewBox="0 0 400 800" xmlns="http://www.w3.org/2000/svg">
  <defs>
    <linearGradient id="bg" x1="0" y1="0" x2="0" y2="1">
      <stop offset="0%" stop-color="#0E0E2D"/>
      <stop offset="60%" stop-color="#0B0B2A"/>
      <stop offset="100%" stop-color="#08081E"/>
    </linearGradient>
    <filter id="glow" x="-50%" y="-50%" width="200%" height="200%">
      <feGaussianBlur stdDeviation="6"/>
    </filter>
    <symbol id="star"><circle r="1.2" fill="#FFFFFF" /></symbol>
  </defs>

  <rect width="400" height="800" fill="url(#bg)"/>

  <!-- sparse stars -->
  <g opacity="0.8">
    <use href="#star" x="36" y="72"/>
    <use href="#star" x="110" y="96" transform="scale(1.2)"/>
    <use href="#star" x="312" y="88" />
    <use href="#star" x="360" y="160" transform="scale(0.9)"/>
    <use href="#star" x="64" y="200"/>
    <use href="#star" x="192" y="150" transform="scale(1.1)"/>
    <use href="#star" x="300" y="240"/>
    <use href="#star" x="80" y="320"/>
    <use href="#star" x="340" y="360"/>
    <use href="#star" x="220" y="420"/>
    <use href="#star" x="70" y="520"/>
    <use href="#star" x="300" y="580"/>
    <use href="#star" x="180" y="740"/>
  </g>

  <!-- Rocket with vertical trail -->
  <g transform="translate(200,420)">
    <!-- trail -->
    <path d="M0,20 L0,140" stroke="#FF7A3C" stroke-width="10" stroke-linecap="round" opacity="0.45" filter="url(#glow)"/>
    <path d="M0,20 L0,120" stroke="#FFD25A" stroke-width="4" stroke-linecap="round" opacity="0.9" filter="url(#glow)"/>

    <!-- rocket -->
    <g>
      <ellipse cx="0" cy="-6" rx="28" ry="14" fill="#8FCBFF" opacity="0.35" filter="url(#glow)"/>
      <path d="M-22,-42 L22,-42 L28,34 L-28,34 Z" fill="#3F87E6" stroke="#2E66B7" stroke-width="3"/>
      <path d="M-18,-32 L18,-32 L24,26 L-24,26 Z" fill="#2E66B7" opacity="0.9"/>
      <ellipse cx="0" cy="-20" rx="10" ry="7" fill="#9ED8FF" stroke="#FFFFFF" stroke-width="1.5"/>
      <ellipse cx="2" cy="-22" rx="5" ry="3" fill="#FFFFFF" opacity="0.7"/>
      <path d="M-24,26 L-36,46 L-8,30 Z" fill="#234D7E"/>
      <path d="M24,26 L36,46 L8,30 Z" fill="#234D7E"/>
      <path d="M-8,34 L0,52 L8,34 Z" fill="#FF7A3C" stroke="#FFA24C" stroke-width="1"/>
      <path d="M-6,34 L0,70 L6,34 Z" fill="#FFD25A" opacity="0.95" filter="url(#glow)"/>
    </g>
  </g>
</svg> 