<svg width="400" height="800" viewBox="0 0 400 800" xmlns="http://www.w3.org/2000/svg">
  <!-- Background gradient -->
  <defs>
    <linearGradient id="bgGradient" x1="0%" y1="0%" x2="0%" y2="100%">
      <stop offset="0%" style="stop-color:#0B0B2A;stop-opacity:1" />
      <stop offset="50%" style="stop-color:#1A1A3A;stop-opacity:1" />
      <stop offset="100%" style="stop-color:#0B0B2A;stop-opacity:1" />
    </linearGradient>
    <radialGradient id="spaceshipGlow" cx="50%" cy="50%" r="50%">
      <stop offset="0%" style="stop-color:#4A90E2;stop-opacity:0.8" />
      <stop offset="100%" style="stop-color:#4A90E2;stop-opacity:0" />
    </radialGradient>
    <radialGradient id="laserGlow" cx="50%" cy="50%" r="50%">
      <stop offset="0%" style="stop-color:#FF4757;stop-opacity:1" />
      <stop offset="100%" style="stop-color:#FF4757;stop-opacity:0" />
    </radialGradient>
    <radialGradient id="explosionGlow" cx="50%" cy="50%" r="50%">
      <stop offset="0%" style="stop-color:#FFD700;stop-opacity:1" />
      <stop offset="100%" style="stop-color:#FFD700;stop-opacity:0" />
    </radialGradient>
  </defs>
  
  <!-- Background -->
  <rect width="400" height="800" fill="url(#bgGradient)"/>
  
  <!-- Stars background -->
  <g id="stars">
    <circle cx="30" cy="80" r="1" fill="#FFFFFF" opacity="0.8"/>
    <circle cx="80" cy="60" r="1.5" fill="#FFFFFF" opacity="0.6"/>
    <circle cx="150" cy="100" r="1" fill="#FFFFFF" opacity="0.9"/>
    <circle cx="220" cy="70" r="1.5" fill="#FFFFFF" opacity="0.7"/>
    <circle cx="280" cy="90" r="1" fill="#FFFFFF" opacity="0.8"/>
    <circle cx="350" cy="50" r="1.5" fill="#FFFFFF" opacity="0.6"/>
    <circle cx="50" cy="150" r="1" fill="#FFFFFF" opacity="0.8"/>
    <circle cx="120" cy="180" r="1.5" fill="#FFFFFF" opacity="0.7"/>
    <circle cx="190" cy="140" r="1" fill="#FFFFFF" opacity="0.9"/>
    <circle cx="260" cy="170" r="1.5" fill="#FFFFFF" opacity="0.6"/>
    <circle cx="330" cy="130" r="1" fill="#FFFFFF" opacity="0.8"/>
    <circle cx="20" cy="250" r="1.5" fill="#FFFFFF" opacity="0.7"/>
    <circle cx="90" cy="280" r="1" fill="#FFFFFF" opacity="0.6"/>
    <circle cx="160" cy="240" r="1.5" fill="#FFFFFF" opacity="0.8"/>
    <circle cx="230" cy="270" r="1" fill="#FFFFFF" opacity="0.7"/>
    <circle cx="300" cy="230" r="1.5" fill="#FFFFFF" opacity="0.9"/>
    <circle cx="370" cy="260" r="1" fill="#FFFFFF" opacity="0.6"/>
    <circle cx="40" cy="350" r="1" fill="#FFFFFF" opacity="0.8"/>
    <circle cx="110" cy="380" r="1.5" fill="#FFFFFF" opacity="0.7"/>
    <circle cx="180" cy="340" r="1" fill="#FFFFFF" opacity="0.9"/>
    <circle cx="250" cy="370" r="1.5" fill="#FFFFFF" opacity="0.6"/>
    <circle cx="320" cy="330" r="1" fill="#FFFFFF" opacity="0.8"/>
    <circle cx="30" cy="450" r="1.5" fill="#FFFFFF" opacity="0.7"/>
    <circle cx="100" cy="480" r="1" fill="#FFFFFF" opacity="0.6"/>
    <circle cx="170" cy="440" r="1.5" fill="#FFFFFF" opacity="0.8"/>
    <circle cx="240" cy="470" r="1" fill="#FFFFFF" opacity="0.7"/>
    <circle cx="310" cy="430" r="1.5" fill="#FFFFFF" opacity="0.9"/>
    <circle cx="380" cy="460" r="1" fill="#FFFFFF" opacity="0.6"/>
    <circle cx="50" cy="550" r="1" fill="#FFFFFF" opacity="0.8"/>
    <circle cx="120" cy="580" r="1.5" fill="#FFFFFF" opacity="0.7"/>
    <circle cx="190" cy="540" r="1" fill="#FFFFFF" opacity="0.9"/>
    <circle cx="260" cy="570" r="1.5" fill="#FFFFFF" opacity="0.6"/>
    <circle cx="330" cy="530" r="1" fill="#FFFFFF" opacity="0.8"/>
    <circle cx="20" cy="650" r="1.5" fill="#FFFFFF" opacity="0.7"/>
    <circle cx="90" cy="680" r="1" fill="#FFFFFF" opacity="0.6"/>
    <circle cx="160" cy="640" r="1.5" fill="#FFFFFF" opacity="0.8"/>
    <circle cx="230" cy="670" r="1" fill="#FFFFFF" opacity="0.7"/>
    <circle cx="300" cy="630" r="1.5" fill="#FFFFFF" opacity="0.9"/>
    <circle cx="370" cy="660" r="1" fill="#FFFFFF" opacity="0.6"/>
    <circle cx="40" cy="750" r="1" fill="#FFFFFF" opacity="0.8"/>
    <circle cx="110" cy="780" r="1.5" fill="#FFFFFF" opacity="0.7"/>
    <circle cx="180" cy="740" r="1" fill="#FFFFFF" opacity="0.9"/>
    <circle cx="250" cy="770" r="1.5" fill="#FFFFFF" opacity="0.6"/>
    <circle cx="320" cy="730" r="1" fill="#FFFFFF" opacity="0.8"/>
  </g>
  
  <!-- Laser beams -->
  <g id="lasers">
    <!-- Red laser beam 1 -->
    <line x1="80" y1="120" x2="160" y2="200" stroke="url(#laserGlow)" stroke-width="4" opacity="0.8"/>
    <line x1="80" y1="120" x2="160" y2="200" stroke="#FF4757" stroke-width="2" opacity="0.9"/>
    
    <!-- Red laser beam 2 -->
    <line x1="320" y1="80" x2="240" y2="160" stroke="url(#laserGlow)" stroke-width="3" opacity="0.8"/>
    <line x1="320" y1="80" x2="240" y2="160" stroke="#FF4757" stroke-width="1.5" opacity="0.9"/>
    
    <!-- Blue laser beam -->
    <line x1="120" y1="300" x2="200" y2="200" stroke="#4A90E2" stroke-width="2.5" opacity="0.8"/>
    <line x1="120" y1="300" x2="200" y2="200" stroke="#87CEEB" stroke-width="1" opacity="0.9"/>
  </g>
  
  <!-- Explosions -->
  <g id="explosions">
    <!-- Explosion 1 -->
    <circle cx="140" cy="180" r="20" fill="url(#explosionGlow)" opacity="0.6"/>
    <circle cx="140" cy="180" r="15" fill="#FFD700" opacity="0.8"/>
    <circle cx="140" cy="180" r="10" fill="#FF6B35" opacity="0.9"/>
    
    <!-- Explosion 2 -->
    <circle cx="260" cy="120" r="15" fill="url(#explosionGlow)" opacity="0.5"/>
    <circle cx="260" cy="120" r="10" fill="#FFD700" opacity="0.7"/>
    <circle cx="260" cy="120" r="5" fill="#FF6B35" opacity="0.8"/>
  </g>
  
  <!-- Enemy spaceships -->
  <g id="enemyShips">
    <!-- Enemy ship 1 -->
    <g transform="translate(80, 100)">
      <ellipse cx="0" cy="0" rx="10" ry="7.5" fill="#FF4757" stroke="#E63946" stroke-width="1.5"/>
      <ellipse cx="0" cy="0" rx="7.5" ry="5" fill="#E63946" opacity="0.8"/>
      <ellipse cx="0" cy="-2.5" rx="4" ry="3" fill="#FF6B35" stroke="#FF8C00" stroke-width="0.5"/>
      <rect x="-7.5" y="-1.5" width="15" height="3" fill="#E63946" rx="1.5"/>
      <ellipse cx="0" cy="6" rx="3" ry="2" fill="#FF6B35"/>
    </g>
    
    <!-- Enemy ship 2 -->
    <g transform="translate(320, 200)">
      <ellipse cx="0" cy="0" rx="9" ry="6" fill="#FF4757" stroke="#E63946" stroke-width="1"/>
      <ellipse cx="0" cy="0" rx="6" ry="4" fill="#E63946" opacity="0.8"/>
      <ellipse cx="0" cy="-2" rx="3" ry="2" fill="#FF6B35" stroke="#FF8C00" stroke-width="0.5"/>
      <rect x="-6" y="-1" width="12" height="2" fill="#E63946" rx="1"/>
      <ellipse cx="0" cy="5" rx="2" ry="1.5" fill="#FF6B35"/>
    </g>
  </g>
  
  <!-- Main player spaceship (hero) -->
  <g transform="translate(200, 400)">
    <!-- Spaceship glow -->
    <ellipse cx="0" cy="0" rx="30" ry="20" fill="url(#spaceshipGlow)" opacity="0.6"/>
    
    <!-- Spaceship body (30x24 like in game) -->
    <ellipse cx="0" cy="0" rx="15" ry="12" fill="#4A90E2" stroke="#357ABD" stroke-width="2"/>
    <ellipse cx="0" cy="0" rx="13" ry="10" fill="#357ABD" opacity="0.8"/>
    
    <!-- Spaceship cockpit (16x12 like in game) -->
    <ellipse cx="0" cy="-4" rx="8" ry="6" fill="#87CEEB" stroke="#FFFFFF" stroke-width="1"/>
    <ellipse cx="0" cy="-4" rx="5" ry="3" fill="#FFFFFF" opacity="0.7"/>
    
    <!-- Spaceship wings (42x8 like in game) -->
    <rect x="-10.5" y="-2" width="21" height="4" fill="#2E5C8A" rx="2"/>
    <rect x="-14.5" y="-2" width="4" height="4" fill="#1E3A5F" rx="1"/>
    <rect x="10.5" y="-2" width="4" height="4" fill="#1E3A5F" rx="1"/>
    
    <!-- Spaceship engine (12x10 like in game) -->
    <ellipse cx="0" cy="8.5" rx="6" ry="5" fill="#FF6B35"/>
    <ellipse cx="0" cy="8.5" rx="4" ry="3" fill="#FF6B35" opacity="0.8"/>
    
    <!-- Side panels (4x12 like in game) -->
    <rect x="-17" y="-3" width="2" height="6" fill="#357ABD" rx="1"/>
    <rect x="15" y="-3" width="2" height="6" fill="#357ABD" rx="1"/>
    
    <!-- Nose cone (8x8 like in game) -->
    <ellipse cx="0" cy="-10" rx="4" ry="4" fill="#FFD700"/>
    
    <!-- Hero glow effect -->
    <ellipse cx="0" cy="0" rx="20" ry="15" fill="#4A90E2" opacity="0.3"/>
  </g>
  
  <!-- Game title -->
  <text x="200" y="600" text-anchor="middle" font-family="Arial, sans-serif" font-size="32" font-weight="bold" fill="#FFFFFF" opacity="0.9">
    COSMIC DASH
  </text>
  
  <!-- Tap to play text -->
  <text x="200" y="650" text-anchor="middle" font-family="Arial, sans-serif" font-size="16" fill="#FFFFFF" opacity="0.7">
    TAP TO PLAY
  </text>
</svg> 