<svg width="400" height="800" viewBox="0 0 400 800" xmlns="http://www.w3.org/2000/svg">
  <defs>
    <linearGradient id="bg" x1="0" y1="0" x2="0" y2="1">
      <stop offset="0%" stop-color="#0E0E2D"/>
      <stop offset="60%" stop-color="#0B0B2A"/>
      <stop offset="100%" stop-color="#08081E"/>
    </linearGradient>
    <filter id="glow" x="-50%" y="-50%" width="200%" height="200%">
      <feGaussianBlur stdDeviation="6"/>
    </filter>
    <symbol id="star"><circle r="1.2" fill="#FFFFFF" /></symbol>
  </defs>

  <rect width="400" height="800" fill="url(#bg)"/>

  <!-- sparse stars -->
  <g opacity="0.8">
    <use href="#star" x="36" y="72"/>
    <use href="#star" x="110" y="96" transform="scale(1.2)"/>
    <use href="#star" x="312" y="88" />
    <use href="#star" x="360" y="160" transform="scale(0.9)"/>
    <use href="#star" x="64" y="200"/>
    <use href="#star" x="192" y="150" transform="scale(1.1)"/>
    <use href="#star" x="300" y="240"/>
    <use href="#star" x="80" y="320"/>
    <use href="#star" x="340" y="360"/>
    <use href="#star" x="220" y="420"/>
    <use href="#star" x="70" y="520"/>
    <use href="#star" x="300" y="580"/>
    <use href="#star" x="180" y="740"/>
  </g>

  <!-- Rocket with vertical trail - matching game design -->
  <g transform="translate(200,420)">
    <!-- trail -->
    <path d="M0,20 L0,140" stroke="#FF7A3C" stroke-width="10" stroke-linecap="round" opacity="0.45" filter="url(#glow)"/>
    <path d="M0,20 L0,120" stroke="#FFD25A" stroke-width="4" stroke-linecap="round" opacity="0.9" filter="url(#glow)"/>

    <!-- rocket matching game design -->
    <g>
      <!-- Rocket glow -->
      <ellipse cx="0" cy="-6" rx="28" ry="14" fill="#8FCBFF" opacity="0.35" filter="url(#glow)"/>
      
      <!-- Rocket body (30x24 like in game) -->
      <ellipse cx="0" cy="0" rx="15" ry="12" fill="#4A90E2" stroke="#357ABD" stroke-width="2"/>
      <ellipse cx="0" cy="0" rx="13" ry="10" fill="#357ABD" opacity="0.8"/>
      
      <!-- Cockpit (16x12 like in game) -->
      <ellipse cx="0" cy="-4" rx="8" ry="6" fill="#87CEEB" stroke="#FFFFFF" stroke-width="1"/>
      <ellipse cx="0" cy="-4" rx="5" ry="3" fill="#FFFFFF" opacity="0.7"/>
      
      <!-- Wings (42x8 like in game) -->
      <rect x="-10.5" y="-2" width="21" height="4" fill="#2E5C8A" rx="2"/>
      <rect x="-14.5" y="-2" width="4" height="4" fill="#1E3A5F" rx="1"/>
      <rect x="10.5" y="-2" width="4" height="4" fill="#1E3A5F" rx="1"/>
      
      <!-- Engine (12x10 like in game) -->
      <ellipse cx="0" cy="8.5" rx="6" ry="5" fill="#FF6B35"/>
      <ellipse cx="0" cy="8.5" rx="4" ry="3" fill="#FF6B35" opacity="0.8"/>
      
      <!-- Side panels (4x12 like in game) -->
      <rect x="-17" y="-3" width="2" height="6" fill="#357ABD" rx="1"/>
      <rect x="15" y="-3" width="2" height="6" fill="#357ABD" rx="1"/>
      
      <!-- Nose cone (8x8 like in game) -->
      <ellipse cx="0" cy="-10" rx="4" ry="4" fill="#FFD700"/>
      
      <!-- Engine flame -->
      <path d="M -3,13.5 L 0,25 L 3,13.5 Z" fill="#FFD700" opacity="0.9" filter="url(#glow)"/>
      <path d="M -2,13.5 L 0,22 L 2,13.5 Z" fill="#FF6B35" opacity="0.8"/>
    </g>
  </g>
</svg> 