<svg width="400" height="800" viewBox="0 0 400 800" xmlns="http://www.w3.org/2000/svg">
  <!-- Background gradient -->
  <defs>
    <linearGradient id="bgGradient" x1="0%" y1="0%" x2="0%" y2="100%">
      <stop offset="0%" style="stop-color:#0B0B2A;stop-opacity:1" />
      <stop offset="50%" style="stop-color:#1A1A3A;stop-opacity:1" />
      <stop offset="100%" style="stop-color:#0B0B2A;stop-opacity:1" />
    </linearGradient>
    <radialGradient id="ufoGlow" cx="50%" cy="50%" r="50%">
      <stop offset="0%" style="stop-color:#4A90E2;stop-opacity:0.6" />
      <stop offset="100%" style="stop-color:#4A90E2;stop-opacity:0" />
    </radialGradient>
    <radialGradient id="obstacleGlow" cx="50%" cy="50%" r="50%">
      <stop offset="0%" style="stop-color:#FF6B35;stop-opacity:0.4" />
      <stop offset="100%" style="stop-color:#FF6B35;stop-opacity:0" />
    </radialGradient>
  </defs>
  
  <!-- Background -->
  <rect width="400" height="800" fill="url(#bgGradient)"/>
  
  <!-- Stars background -->
  <g id="stars">
    <circle cx="30" cy="80" r="1" fill="#FFFFFF" opacity="0.8"/>
    <circle cx="80" cy="60" r="1.5" fill="#FFFFFF" opacity="0.6"/>
    <circle cx="150" cy="100" r="1" fill="#FFFFFF" opacity="0.9"/>
    <circle cx="220" cy="70" r="1.5" fill="#FFFFFF" opacity="0.7"/>
    <circle cx="280" cy="90" r="1" fill="#FFFFFF" opacity="0.8"/>
    <circle cx="350" cy="50" r="1.5" fill="#FFFFFF" opacity="0.6"/>
    <circle cx="50" cy="150" r="1" fill="#FFFFFF" opacity="0.8"/>
    <circle cx="120" cy="180" r="1.5" fill="#FFFFFF" opacity="0.7"/>
    <circle cx="190" cy="140" r="1" fill="#FFFFFF" opacity="0.9"/>
    <circle cx="260" cy="170" r="1.5" fill="#FFFFFF" opacity="0.6"/>
    <circle cx="330" cy="130" r="1" fill="#FFFFFF" opacity="0.8"/>
    <circle cx="20" cy="250" r="1.5" fill="#FFFFFF" opacity="0.7"/>
    <circle cx="90" cy="280" r="1" fill="#FFFFFF" opacity="0.6"/>
    <circle cx="160" cy="240" r="1.5" fill="#FFFFFF" opacity="0.8"/>
    <circle cx="230" cy="270" r="1" fill="#FFFFFF" opacity="0.7"/>
    <circle cx="300" cy="230" r="1.5" fill="#FFFFFF" opacity="0.9"/>
    <circle cx="370" cy="260" r="1" fill="#FFFFFF" opacity="0.6"/>
    <circle cx="40" cy="350" r="1" fill="#FFFFFF" opacity="0.8"/>
    <circle cx="110" cy="380" r="1.5" fill="#FFFFFF" opacity="0.7"/>
    <circle cx="180" cy="340" r="1" fill="#FFFFFF" opacity="0.9"/>
    <circle cx="250" cy="370" r="1.5" fill="#FFFFFF" opacity="0.6"/>
    <circle cx="320" cy="330" r="1" fill="#FFFFFF" opacity="0.8"/>
    <circle cx="30" cy="450" r="1.5" fill="#FFFFFF" opacity="0.7"/>
    <circle cx="100" cy="480" r="1" fill="#FFFFFF" opacity="0.6"/>
    <circle cx="170" cy="440" r="1.5" fill="#FFFFFF" opacity="0.8"/>
    <circle cx="240" cy="470" r="1" fill="#FFFFFF" opacity="0.7"/>
    <circle cx="310" cy="430" r="1.5" fill="#FFFFFF" opacity="0.9"/>
    <circle cx="380" cy="460" r="1" fill="#FFFFFF" opacity="0.6"/>
    <circle cx="50" cy="550" r="1" fill="#FFFFFF" opacity="0.8"/>
    <circle cx="120" cy="580" r="1.5" fill="#FFFFFF" opacity="0.7"/>
    <circle cx="190" cy="540" r="1" fill="#FFFFFF" opacity="0.9"/>
    <circle cx="260" cy="570" r="1.5" fill="#FFFFFF" opacity="0.6"/>
    <circle cx="330" cy="530" r="1" fill="#FFFFFF" opacity="0.8"/>
    <circle cx="20" cy="650" r="1.5" fill="#FFFFFF" opacity="0.7"/>
    <circle cx="90" cy="680" r="1" fill="#FFFFFF" opacity="0.6"/>
    <circle cx="160" cy="640" r="1.5" fill="#FFFFFF" opacity="0.8"/>
    <circle cx="230" cy="670" r="1" fill="#FFFFFF" opacity="0.7"/>
    <circle cx="300" cy="630" r="1.5" fill="#FFFFFF" opacity="0.9"/>
    <circle cx="370" cy="660" r="1" fill="#FFFFFF" opacity="0.6"/>
    <circle cx="40" cy="750" r="1" fill="#FFFFFF" opacity="0.8"/>
    <circle cx="110" cy="780" r="1.5" fill="#FFFFFF" opacity="0.7"/>
    <circle cx="180" cy="740" r="1" fill="#FFFFFF" opacity="0.9"/>
    <circle cx="250" cy="770" r="1.5" fill="#FFFFFF" opacity="0.6"/>
    <circle cx="320" cy="730" r="1" fill="#FFFFFF" opacity="0.8"/>
  </g>
  
  <!-- Top obstacle (asteroid field) -->
  <g transform="translate(320, 100)">
    <rect x="0" y="0" width="60" height="200" fill="url(#obstacleGlow)" opacity="0.3"/>
    <rect x="5" y="5" width="50" height="190" fill="#8B4513" opacity="0.8"/>
    <!-- Asteroid details -->
    <circle cx="15" cy="30" r="4" fill="#A0522D" opacity="0.7"/>
    <circle cx="35" cy="50" r="3" fill="#CD853F" opacity="0.8"/>
    <circle cx="25" cy="80" r="5" fill="#A0522D" opacity="0.6"/>
    <circle cx="40" cy="110" r="3.5" fill="#CD853F" opacity="0.7"/>
    <circle cx="20" cy="140" r="4.5" fill="#A0522D" opacity="0.8"/>
    <circle cx="35" cy="170" r="2.5" fill="#CD853F" opacity="0.6"/>
    <circle cx="30" cy="190" r="4" fill="#A0522D" opacity="0.7"/>
  </g>
  
  <!-- Bottom obstacle (space station) -->
  <g transform="translate(320, 500)">
    <rect x="0" y="0" width="60" height="150" fill="url(#obstacleGlow)" opacity="0.3"/>
    <rect x="5" y="5" width="50" height="140" fill="#2E5C8A" opacity="0.8"/>
    <!-- Station details -->
    <rect x="10" y="20" width="40" height="15" fill="#4A90E2" opacity="0.9"/>
    <rect x="15" y="45" width="30" height="10" fill="#87CEEB" opacity="0.8"/>
    <rect x="12" y="65" width="36" height="18" fill="#4A90E2" opacity="0.7"/>
    <rect x="17" y="90" width="26" height="15" fill="#87CEEB" opacity="0.8"/>
    <rect x="10" y="115" width="40" height="18" fill="#4A90E2" opacity="0.9"/>
    <!-- Windows -->
    <circle cx="20" cy="27" r="1.5" fill="#FFFFFF" opacity="0.8"/>
    <circle cx="40" cy="27" r="1.5" fill="#FFFFFF" opacity="0.8"/>
    <circle cx="30" cy="50" r="1" fill="#FFFFFF" opacity="0.7"/>
    <circle cx="30" cy="74" r="1.5" fill="#FFFFFF" opacity="0.8"/>
    <circle cx="30" cy="124" r="1.5" fill="#FFFFFF" opacity="0.8"/>
  </g>
  
  <!-- Central UFO/Spaceship (like in game) -->
  <g transform="translate(200, 400)">
    <!-- UFO glow -->
    <ellipse cx="0" cy="0" rx="30" ry="20" fill="url(#ufoGlow)" opacity="0.4"/>
    
    <!-- UFO body -->
    <ellipse cx="0" cy="0" rx="20" ry="12" fill="#4A90E2" opacity="0.9"/>
    <ellipse cx="0" cy="0" rx="17" ry="10" fill="#357ABD" opacity="0.8"/>
    
    <!-- UFO cockpit -->
    <ellipse cx="0" cy="-2" rx="7" ry="5" fill="#87CEEB" opacity="0.9"/>
    <ellipse cx="0" cy="-2" rx="5" ry="3" fill="#FFFFFF" opacity="0.7"/>
    
    <!-- UFO lights -->
    <circle cx="-10" cy="0" r="1.5" fill="#FFD700" opacity="0.8"/>
    <circle cx="10" cy="0" r="1.5" fill="#FFD700" opacity="0.8"/>
    <circle cx="0" cy="8" r="1" fill="#FF6B35" opacity="0.7"/>
    
    <!-- UFO engine glow -->
    <ellipse cx="0" cy="10" rx="4" ry="2" fill="#FF6B35" opacity="0.6"/>
  </g>
  
  <!-- Game UI elements (like HUD) -->
  <!-- Score display -->
  <rect x="20" y="40" width="80" height="30" rx="15" fill="rgba(255, 215, 0, 0.1)" opacity="0.8"/>
  <rect x="22" y="42" width="76" height="26" rx="13" fill="rgba(255, 215, 0, 0.2)" opacity="0.6"/>
  <text x="60" y="58" text-anchor="middle" font-family="Arial, sans-serif" font-size="14" font-weight="bold" fill="#FFD700" opacity="0.9">SCORE</text>
  <text x="60" y="75" text-anchor="middle" font-family="Arial, sans-serif" font-size="18" font-weight="bold" fill="#FFD700" opacity="0.9">0</text>
  
  <!-- Game title -->
  <text x="200" y="200" text-anchor="middle" font-family="Arial, sans-serif" font-size="32" font-weight="bold" fill="#FFFFFF" opacity="0.9">
    COSMIC DASH
  </text>
  
  <!-- Tap to play instruction -->
  <text x="200" y="650" text-anchor="middle" font-family="Arial, sans-serif" font-size="16" fill="#FFFFFF" opacity="0.7">
    TAP TO PLAY
  </text>
</svg> 